<mxfile modified="2021-01-29T16:54:33.592Z" host="app.diagrams.net" agent="5.0 (X11)" etag="wmP5PXsphjHHX4lzaNeo" version="14.2.3" type="github">
  <diagram id="BN8vAMgGX8_Boa8QjBI5" name="Page-1">
    <mxGraphModel dx="1422" dy="800" grid="1" gridSize="10" guides="1" tooltips="1" connect="1" arrows="1" fold="1" page="1" pageScale="1" pageWidth="827" pageHeight="1169" math="0" shadow="0">
      <root>
        <mxCell id="0" />
        <mxCell id="1" parent="0" />
        <mxCell id="DPeJ0oSW1ntLBTdVf3Qx-1" value="&lt;div&gt;&lt;img src=&quot;data:image/png;base64,iVBORw0KGgoAAAANSUhEUgAAATUAAAAuCAYAAABJeY7oAAAACXBIWXMAAA7GAAAO5gF/UekwAAAUIElEQVR4nO2dCTwW2//Hs+8iESGt5KZE15Ktq7gt2lNaLO3X0g1FCW0q3VK0oySh/hEqS0oLcrsJFUV1045EtuxZf+frNt3xNM+WR/q75/16zeuZOefMme+ZOfOZ71lmHt729vY+GAwG01vg7WkDMBgMhpNgUcNgML0KLGoYDKZXgUUNg8H0KrCoYTCYXgUWNQwG06vAoobBYHoVWNQwGEyvAosaBoPpVWBRw2AwvQosahgMpleBRQ2DwfQqsKhh/nNk5L02zHv+XpNefL++IqXGP49IFBcVrMrMe2tQVVvfz0hjeJIAP28jVfqikiqljMdvDA3GDrsmLSlaAmGPnhdrZuW9MSTSiAjz16gOkc0ZPXzgPc6XiDF/5byc9PfrUjV68bJS4oWmeiMv8XJztyTezjOX69+3YKyKwl0i/mLywyWV1fX9iW1xEYGqMcoKmSMGST+mzQvSpWTmTzHQ/PdcMCM+LdcCbPj5p0G32S0bFVjUMP85Fm48ldzW1s7DKI3umCEp5/5YZrzILTi5pbWNd76pxikf5znLqdLabAlLfF7wQVW2v3hheqiL4j/HCE6pa/gkRpWej5enOXLvciONkYrpXS8NcyzdTye1tbdzM0pjO99wj9syUze7XRHnYfv1ZS8uIs7JJyqc3n7aakq34Dxxc3O3wbbbwUsnrt55MpsHCeTjGE8xeg8CgvCETDvPo3HHYD3J32G0stKAXHbKRgUWNcx/Di4urvY+fdr7oLu2HQlREW18LRIjXbXBqf+m7dPnU1OLEL38QPTgl5eHu+VLYHs7V8e+7e19iGOUVdXJNLe08qOFb866E3eexW5B9zxvE8RlPX6rpyTX7wWVd4M8PgO42cFzLCmvlXtfVq0waoTsA/CsIL6gpHLIHyeT9vQVE6pcMlUrYNRwuQedC4wK296HYXk1RiowFVgxEYGPokICNbBejGyA34zcN0a61vsLM8JdB8J2U0sLP/y2trXxuvjGhBx2W7CQUZ7bAhIOEet1DU2izGxgBSxq3Uh5ebnstGnTiq9evSotISFR9r2OW1dXJ+7p6Xnu0aNHuoMHD34aFBSk972O/f8Jq+nax7zsp6/prvy5kJhYmmn7k4/hc/q699GIW5tgfbFbyM2ofSsNYN3cJaij6UX2kAjMXU+mEXErtoXF574o1pxmOOr8sU0WCxZsCE7NyH1tRKQ9m5i1Gn5fxm/jIbwngq6Ul5ubqy10h/UUsnfptC867OLNHMvSihq56tpGCRBd8j5xt3It3Jb/ulFeRuINVZ4ufheDiQcCJ2E5Q0dHxytKSkpP161b58RpI74VGxubrPnz5x+ZPn16SE/bwik4Uaa4uLhljY2NwklJSdKoYrdy0LyOepCenj6ZNvzw4cOm2tra1zl5rN6Iq42Je0DUn66t6GZuJTWBQQDbO5xHaiAefptb2/jgt66+SRyJyUBC0CTEhCrUVRTupmblT4XtgpKqIeD5dWdZDrjMswJRg/X4tEcWi6dqBdKm+W3nuZj4Q7bjaMMbPzULR19/sLQ77MKeGqKlpYWPl5e3uaft4BTv3r0bAg+grggao3MCort27VpXchjv52YUp4/VmyGE6lt5mP9Og1jPjtgkBb8gFpmoudrdgga0tP3rZfHy8HS6fooDJF4jYR2c+/ydZtr9578aag5PIscv2BicglScCzxAEHNY55RdHBG1yspKGV9f3wNZWVkToR9BV1f3qpOT0zpxcfEKiLe0tMzW09O7/OTJE62ysjI5SLNhwwb7sWPHphF5fPjwQd7b2/vEw4cP9fr161dibW29Z+fOnSfpNd3geC9fvlQ7cuTInlOnTnkqKys/2L179/yGhgZRf3//XampqbPq6+vFRo8efQcdy0FWVvaLCwz2gI15eXk6FRUVA1avXr0F5eExadKk8xkZGaa5ubk6SBT+3rFjx+LHjx9rHT9+fHtNTY3k1KlTw11cXNYQ/Sy0QNk+l0Ef2fxh6dKlu8nxERERa2NiYuxKSkoUxMTEqkxNTc/Z29u7Ezc0vTIx248MSn/8+vXrC6CSZGZmmpibmx9dtGiRHyvXiPacwPmgKieIJT8/P2UHMPIwC7ds2bKU8NpKS0sVZsyYUYBskgTb6R1LU1MzlZl9WlpaN/Lz89WheQ3lc3Z2dlJXV+9otrFy3X8EfEKv72z93OQaJNs14VEbJpdNrF9LfzrLVHfkJUEBvnpaAekO2trauLWX+Lwjtn/5eUQiOV5IkL9uorZyws2MZ2aomRp+7+xGGSKuqLRK6eGzIi1YXz3PwCcw6s8NnLSNI6Lm7u4eiSpsZWRk5EhUWB5Uqc9s3bo1zM/Pz4xIgyrb7ICAgAmSkpIfEhISbFB8+KVLl5SIeA8PjwhFRcVnly9flkMVVATyZHRMaAbn5OQY0DbVtm3bFtrc3MyPREEHbDpx4sR2VLkvhISE/EzuY0hOTp4XGBho2L9//2LYBlFDzbblSBTMoR8K/QYiAYvV0NBIDQ8PH1tVVSW9YsWKO3CzGRoaxlLZBGUYMGBAQXx8vDzcZG5ublHkeCkpqff79++fLi8v//LNmzcq69evj5ORkSlcuHDhQUZlYrYfmU2bNq0Gr6m1tZUXHd+WnWtEe066E9pj2dnZpTCzLyUlZU5wcLAO1CF4+KDzlRAdHT0cHnqsXncyofEZDmEJGfbkMB4k2Ke2W5pxQhja2tq5I5PuL7+d82pibV1j37KPdTKtpD6kfevnLKPdZ9S8nTWs5k/u9F/ldfYi/OqpD00O32VtQlVmKGv0jWwbcpiEmHC5i80kzznG6nRHOImy2HlHRIkICVR/gD60ukYJkh2FMv3EvqozAZ4L56rM2tFQXlUnfSzy1ib7BUYdD/lZzsc7pouICgtUw4jrDydqRUVFQ+/fvz8BBIp4Ejs6Oq5H3kEueC5EpZ0zZ85xqIywbmRkFOvl5RUCT2nwygoLC4ejm1l/3759MwUEBBpgWbly5fZ79+4Zs2MLeAVQ8WNjYwdBvhBma2vriW6UNeABDR8+/CGRdubMmUG0Ny+yMVBFRaVj5MjMzOx0YmKiFdwUUC5YkPdxDTw3KlFDZRiWnZ1tiPaRFRQUrIcFiaDX77//fo1IY2Ji8kWoQTiRF3UMeSaTqMSJzLfuR8DqNaI6J1RcuHDhtytXrliSw6KiopQJr4oVyMdi1T7k8QUTdQiuhYKCwnN0vedCK4DV604LbT8WdFw/eVUyhlPezqemFsEXBR9UyWFSEiKlyccdVYjRSzL0RgCR90opzNmRm6Rmrg3IfPu+cihs/5Xz0lh5lten3CiPvuC1kdNCWWnzh+0zCZm2zEQNvOeS8pqB7e3V8uRw5B3GntiyeBbVPjCy62RpvM0v7KaXL1pWzNbzu53zcmJZZe0AiN9ma7aW0TG/lS6LGmoSKfLw8LQgN/8tEYYq2wsijqiQffv2/dKEBNGCX2gmQCVEYiQvJCRUS74p5OTkvjQbkFBYoidxGLFNbsqQgb4kOPlkIQFAYODmIFdu5Ol8NbSNbP3iTiN76mAhHwe2EZRzj0BQoQzETQUgz/M5Oc3t27fNkNfnguzsqIDgkaI0+VT5cWI/AlavEdU5oWLKlClnVq1atY0cJioqWsWqPbTHYtU+WsGFbTjv7Fx3Mvpjh974fdEvO8hhfLzczeNUB/3FTllakWdJL066n9h7ZSWZvD8fvDCBbZT3nej9K+mORp/bs/wX2rCF//Q/Uc4zkxAVqrgV7DwM1sPiM+w3H4s/CsLsfjguwNdlrjU5LXhTMyaMPkebx3wTjRB69hBAc99ERyXuRWGZyquicmUIc7Aw2g0DH4z2c0TnNyAybWPDp2YRmOKRhJrJEA59buYmY08zO+630GVRg+YWNHWgckGTCMLgyUvEsZIHVHBorlVXV/cjhK24uPhL0xT6smCh3Y/WxSb6T6BZQzzRGcDR/waEskMZQKiFhYU7mhAwpYOIr6yslHZ1db3o4+Mze/z48Ylg+7lz55ySkpI6zeOhLROr+zGCjWvE0jkB8SbyoQWVvbapqUmQ2EbN9v5U6cjHYtU+8OjJGcA28prj2LzuXxim0P+p7uh/5qPRg5ubCwZb+FoZTF4lZtsjT+irNFP0VGNgGkXOsyKtWU6BGfeevB1PborRwsweRsCUjZC4u2vAM6yoqZeismXzqinrvjV/JGLeMKXD7dClE+eu3FsJU1PgLYrx6kOSGe0XuHnRXGvP0KswxYMIO7Rx/qJvtYMZbIka9HWQKywwcODAVxoaGrcOHDjg6+7uvgrSHDp0aB9qEiSy2jcDzQjo2D148OA+6NwFTyQoKGgrs/2kpKSK3759q0Jsw5MeNW0v7dq1KwgJwRq4IaCD/+7du6bGxsYx4A2wU152AM8COq1DQ0M3QtMHzgN4V0Q8CB48bZWVlbNBmD5+/CiFmlsrQSAYlYnV/RgBfXFdvUZkqOoBDFrAAIKqqmpWWlraDAMDg3gQqjNnzrjQy4dd+2CqysSJE6PgXERHR9uBhz9hwoQLIGTddd37S4iWQMd2wq3cBUfdFljQxkOHeW39J3FYH6EkQ3c2vLqyfKYHEpRdJ6747g257q2urJABnuK32gVYepy+Bh4gdNKHeFlNe/isSJto6g6Vl3rWlbwZ8cfaWav+ynk18W1xxVCbLaGJd8NcFSTFhenOwzRCTXkF5JkVllQNhm0Qxu58m4ItUTt//vwaWMhhZ8+eHY0qk4Ufwtzc/Bk0A3R0dJJg5IqdvCEPGLmDyarQhFu8eLEv9Knx8/N/orePlZXVXm9v76CYmBhbuJlgrhRqplojQdwCHc8VFRUyqNlbDiNr6GaIZseebwHKAKOf1tbW95DHWQk3IHSIQxyIv4ODgxuyKxluQujMhhsxMzNzErMysbIfK7Z19RoRUNWDzZs3L4PBDWSn+/bt20+j6/cIRoDB1itXrizhhH3z5s3z9/X1PZifnz8GHiIwiEB4Zt113VfP1d+/9fOs9w0HLp7c6zR7BTne1O5oHrG+Yvb4A4zyWjVHzy8lM9/sdvaLSeC53Aldr0h0sDOao0aOlxATqiTCwEsCUUvJyp86eNqWTl62+8rJrrR5cJIrR+3V1S12lzc1twrMRB5oWrDzUEbpI1CzWn+p72tY9/ewMO9O21gWNeRFTWEUv3PnTrruJIwekrdhOgB6ina6iPB0RU/qqcQ2DO3DDUw05agAzygiIqJTJyykhzlUtPOoGNlDFaamppaekpLSqVPVw8NjJb08AWlp6SJ0o00jh82dOzeAWLe0tPSBhRyPbkIP8jZVmVjZjwx4K7RhMILKzjWiB7N6AN6yv79/pwEe2gENqmMxsw9AHt0LmF5DFcfKdacl5maONQwK0IYj76z0N3N9H3ip22amzuGAqD83FJd9VICRzJib2VYWv447WVJRM/Bmxt9mxDukirKSrww1hl37+iidOeNtY6Kx8I8y1GSVmrrmWHZmuKsceODaakppr4rKR1Dt89NQ2RwxYcGPsL589ni/h/nvxpnoqMRCcxNeR9ofdsOLsGOAlPi7+EO2mlSDEJxEWJC/9vzeFUaznY+nF7yvHOLkEx12wHWeFb308FbBqe1WZjDiKSv19atanOSHmXz79OnTcVAxBw0a9AzmrMGco8mTJ/9fT9uF6X1wfe7PQ81GsUzSlzTIlFbWyEXvW6kP66nBjsMMlvq9hteBWlra+M5czrQlp4XXg1KDHDv198EIZ9176pHMm8fXjtRctKe0vKpOxtTuSN6NwLWqkUgg6Nl7+Yj9WGJ98njVi09iPL/kC/1csDAqL7yT2tTWyvAF/m8BRN/FepLHvtAbuy4m51ia6qrEKgyQfA1xVKO4xlojLlPlw8XVBybgcsy+H0bUoFMd5nVBXwiIG3QAQ7Orp+3C9D6clhh73UBeFqM0lmZa/sQ6TE2AF7ZPx911CIq57VJd19gXwvuKClU6W03cSjUdYuMyU7eTF+84zzPR+GqED/qf9q+bY3M08pa7vnrX+tVYwXFxR3mnzzIec5ZZWiszbf+3JZWDyWGzUfnel31UHDFI5qtPDa1ZOME760mB/suCDyPhZXcQ2KfI+51mMIpy4jYVdvMN995/WqD709B/JxN3hR9G1PT19RNg6Wk7MD8mrDaPWQHdiDthYXc/mxk6R2FhJa2Zodp5WOjFz500NgwWdm34Fljx5gh2OEy3pw1j1KwEQrZbdnpAnPdZQen90oPZtBB2+WFEDYPBYDgBFjUMBtOrwKKGwWB6FV+JGnzRMjT+rkP6w9e/lFfVyggL8ddqjlRMh28lqQ2Xu98TRmIwGAyrdBK1qGsPlsK7Yw2fmoXJ4TCaAa9FrJqnv3/DUpNNPBz+8CAGg8Fwii+iduFmjqWL34VT9BLCHzcERv3pCi/LduX9MQwGg+lOOkStorq+P3horOwQfPGOk5nBqPOaqop3utc0DAaDYZ8OUYNmJ/FSLjPgEySnYtPXYlHDYDA/Ih2iBt80Z2enzFzqV0swGAymp+kQtaqahq++vcSIsqpamYS0vPndY9LXfKxtkPxex8KwR1NziwDtwBLmxwFaYMz+uLk3IS0p+r5D1ESE+Fn+LjrQ0trG57A7guF/CHQn4iKCVfT+/ATTs/Dx8jQJC/LV9bQdGGrgKxm9efaC0sB+zztEbfyYIckpn/8vkBVm/TLm7MEN5ky/kYXBYDDfmw5RMzfROH3wbMrW+sYmEVZ2WjJNK4B5KgwGg/n+dIgafPtp8+qpzpsOXTrObAeLyZon4YN23W8aBoPBsM+XybeLpow7UVvfKL7n1LU/Wkj/TUgG0uywn+7w/czDYDAY9ugkXqvm6u+fqKWSAPPQbj94YfK+vFpegJ+3UWf04FSbGTpH9NSH3uwpQzEYDIYV/gc/+WhbTNETrgAAAABJRU5ErkJggg==&quot; width=&quot;309&quot; height=&quot;46&quot;&gt;&lt;/div&gt;&lt;div&gt;User management and data consumption (data users)&lt;br&gt;&lt;/div&gt;&lt;div&gt;Version 0.16&lt;/div&gt;&lt;div&gt;28 February 2021&lt;br&gt;&lt;/div&gt;" style="text;html=1;strokeColor=none;fillColor=none;spacing=5;spacingTop=-20;whiteSpace=wrap;overflow=hidden;rounded=0;" parent="1" vertex="1">
          <mxGeometry x="50" y="50" width="340" height="90" as="geometry" />
        </mxCell>
        <mxCell id="DPeJ0oSW1ntLBTdVf3Qx-2" value="User management" style="swimlane;html=1;horizontal=0;startSize=20;" parent="1" vertex="1">
          <mxGeometry x="50" y="167" width="1550" height="900" as="geometry" />
        </mxCell>
        <mxCell id="DPeJ0oSW1ntLBTdVf3Qx-3" value="Data consumer" style="swimlane;html=1;horizontal=0;swimlaneLine=0;" parent="DPeJ0oSW1ntLBTdVf3Qx-2" vertex="1">
          <mxGeometry x="20" width="1530" height="543" as="geometry" />
        </mxCell>
        <mxCell id="DPeJ0oSW1ntLBTdVf3Qx-4" value="" style="edgeStyle=orthogonalEdgeStyle;rounded=0;orthogonalLoop=1;jettySize=auto;html=1;" parent="DPeJ0oSW1ntLBTdVf3Qx-3" source="DPeJ0oSW1ntLBTdVf3Qx-5" target="DPeJ0oSW1ntLBTdVf3Qx-6" edge="1">
          <mxGeometry relative="1" as="geometry" />
        </mxCell>
        <mxCell id="DPeJ0oSW1ntLBTdVf3Qx-5" value="Visit public website" style="shape=ext;rounded=1;html=1;whiteSpace=wrap;" parent="DPeJ0oSW1ntLBTdVf3Qx-3" vertex="1">
          <mxGeometry x="123" y="308" width="120" height="80" as="geometry" />
        </mxCell>
        <mxCell id="DPeJ0oSW1ntLBTdVf3Qx-6" value="Apply for an account (webform)" style="shape=ext;rounded=1;html=1;whiteSpace=wrap;" parent="DPeJ0oSW1ntLBTdVf3Qx-3" vertex="1">
          <mxGeometry x="311" y="308" width="120" height="80" as="geometry" />
        </mxCell>
        <mxCell id="DPeJ0oSW1ntLBTdVf3Qx-7" value="" style="edgeStyle=orthogonalEdgeStyle;rounded=0;orthogonalLoop=1;jettySize=auto;html=1;" parent="DPeJ0oSW1ntLBTdVf3Qx-3" source="DPeJ0oSW1ntLBTdVf3Qx-8" target="DPeJ0oSW1ntLBTdVf3Qx-5" edge="1">
          <mxGeometry relative="1" as="geometry" />
        </mxCell>
        <mxCell id="DPeJ0oSW1ntLBTdVf3Qx-8" value="" style="shape=mxgraph.bpmn.shape;html=1;verticalLabelPosition=bottom;labelBackgroundColor=#ffffff;verticalAlign=top;align=center;perimeter=ellipsePerimeter;outlineConnect=0;outline=standard;symbol=general;" parent="DPeJ0oSW1ntLBTdVf3Qx-3" vertex="1">
          <mxGeometry x="20" y="323" width="50" height="50" as="geometry" />
        </mxCell>
        <mxCell id="DPeJ0oSW1ntLBTdVf3Qx-9" value="" style="shape=mxgraph.bpmn.shape;html=1;verticalLabelPosition=bottom;labelBackgroundColor=#ffffff;verticalAlign=top;align=center;perimeter=rhombusPerimeter;background=gateway;outlineConnect=0;outline=standard;symbol=message;" parent="DPeJ0oSW1ntLBTdVf3Qx-3" vertex="1">
          <mxGeometry x="515" y="60" width="50" height="50" as="geometry" />
        </mxCell>
        <mxCell id="DPeJ0oSW1ntLBTdVf3Qx-10" value="" style="edgeStyle=orthogonalEdgeStyle;rounded=0;orthogonalLoop=1;jettySize=auto;html=1;entryX=0;entryY=0.5;entryDx=0;entryDy=0;" parent="DPeJ0oSW1ntLBTdVf3Qx-3" source="DPeJ0oSW1ntLBTdVf3Qx-11" target="U9Vd30T9EG7b3IhSSjeB-5" edge="1">
          <mxGeometry relative="1" as="geometry" />
        </mxCell>
        <mxCell id="DPeJ0oSW1ntLBTdVf3Qx-11" value="First use: consent, profile management" style="shape=ext;rounded=1;html=1;whiteSpace=wrap;" parent="DPeJ0oSW1ntLBTdVf3Qx-3" vertex="1">
          <mxGeometry x="670" y="308" width="120" height="80" as="geometry" />
        </mxCell>
        <mxCell id="DPeJ0oSW1ntLBTdVf3Qx-12" value="" style="edgeStyle=orthogonalEdgeStyle;rounded=0;orthogonalLoop=1;jettySize=auto;html=1;exitX=1;exitY=0.5;exitDx=0;exitDy=0;" parent="DPeJ0oSW1ntLBTdVf3Qx-3" source="U9Vd30T9EG7b3IhSSjeB-9" target="DPeJ0oSW1ntLBTdVf3Qx-16" edge="1">
          <mxGeometry relative="1" as="geometry" />
        </mxCell>
        <mxCell id="DPeJ0oSW1ntLBTdVf3Qx-13" value="Regular use: browse, query, save, export" style="shape=ext;rounded=1;html=1;whiteSpace=wrap;" parent="DPeJ0oSW1ntLBTdVf3Qx-3" vertex="1">
          <mxGeometry x="931" y="308" width="120" height="80" as="geometry" />
        </mxCell>
        <mxCell id="DPeJ0oSW1ntLBTdVf3Qx-14" value="Usage log" style="shape=datastore;whiteSpace=wrap;html=1;" parent="DPeJ0oSW1ntLBTdVf3Qx-3" vertex="1">
          <mxGeometry x="1102" y="263" width="60" height="60" as="geometry" />
        </mxCell>
        <mxCell id="DPeJ0oSW1ntLBTdVf3Qx-16" value="" style="shape=mxgraph.bpmn.shape;html=1;verticalLabelPosition=bottom;labelBackgroundColor=#ffffff;verticalAlign=top;align=center;perimeter=ellipsePerimeter;outlineConnect=0;outline=end;symbol=general;" parent="DPeJ0oSW1ntLBTdVf3Qx-3" vertex="1">
          <mxGeometry x="1454" y="323" width="50" height="50" as="geometry" />
        </mxCell>
        <mxCell id="DPeJ0oSW1ntLBTdVf3Qx-17" value="" style="shape=mxgraph.bpmn.shape;html=1;verticalLabelPosition=bottom;labelBackgroundColor=#ffffff;verticalAlign=top;align=center;perimeter=ellipsePerimeter;outlineConnect=0;outline=end;symbol=cancel;" parent="DPeJ0oSW1ntLBTdVf3Qx-3" vertex="1">
          <mxGeometry x="1454" y="33" width="50" height="50" as="geometry" />
        </mxCell>
        <mxCell id="DPeJ0oSW1ntLBTdVf3Qx-18" value="Exception: not in agreement or no response" style="endArrow=block;endFill=1;endSize=6;html=1;exitX=0.5;exitY=0;exitDx=0;exitDy=0;entryX=0;entryY=0.5;entryDx=0;entryDy=0;" parent="DPeJ0oSW1ntLBTdVf3Qx-3" source="DPeJ0oSW1ntLBTdVf3Qx-9" target="DPeJ0oSW1ntLBTdVf3Qx-17" edge="1">
          <mxGeometry width="100" relative="1" as="geometry">
            <mxPoint x="-20" y="890" as="sourcePoint" />
            <mxPoint x="1020" y="10" as="targetPoint" />
          </mxGeometry>
        </mxCell>
        <mxCell id="DPeJ0oSW1ntLBTdVf3Qx-45" value="Saved queries" style="shape=datastore;whiteSpace=wrap;html=1;" parent="DPeJ0oSW1ntLBTdVf3Qx-3" vertex="1">
          <mxGeometry x="901" y="405" width="60" height="60" as="geometry" />
        </mxCell>
        <mxCell id="DPeJ0oSW1ntLBTdVf3Qx-47" value="" style="endArrow=none;dashed=1;html=1;entryX=0.5;entryY=0;entryDx=0;entryDy=0;" parent="DPeJ0oSW1ntLBTdVf3Qx-3" source="DPeJ0oSW1ntLBTdVf3Qx-13" target="DPeJ0oSW1ntLBTdVf3Qx-45" edge="1">
          <mxGeometry width="50" height="50" relative="1" as="geometry">
            <mxPoint x="-20" y="940" as="sourcePoint" />
            <mxPoint x="30" y="890" as="targetPoint" />
          </mxGeometry>
        </mxCell>
        <mxCell id="DPeJ0oSW1ntLBTdVf3Qx-52" value="Request change of account" style="shape=mxgraph.bpmn.shape;html=1;verticalLabelPosition=bottom;labelBackgroundColor=#ffffff;verticalAlign=top;align=center;perimeter=ellipsePerimeter;outlineConnect=0;outline=eventInt;symbol=message;" parent="DPeJ0oSW1ntLBTdVf3Qx-3" vertex="1">
          <mxGeometry x="20" y="433" width="50" height="50" as="geometry" />
        </mxCell>
        <mxCell id="DPeJ0oSW1ntLBTdVf3Qx-58" value="Login" style="edgeStyle=orthogonalEdgeStyle;rounded=0;orthogonalLoop=1;jettySize=auto;html=1;entryX=0.5;entryY=1;entryDx=0;entryDy=0;exitX=0;exitY=0.5;exitDx=0;exitDy=0;" parent="DPeJ0oSW1ntLBTdVf3Qx-3" source="DPeJ0oSW1ntLBTdVf3Qx-56" target="U9Vd30T9EG7b3IhSSjeB-5" edge="1">
          <mxGeometry relative="1" as="geometry">
            <Array as="points">
              <mxPoint x="853" y="487" />
            </Array>
          </mxGeometry>
        </mxCell>
        <mxCell id="DPeJ0oSW1ntLBTdVf3Qx-59" value="ignore" style="edgeStyle=orthogonalEdgeStyle;rounded=0;orthogonalLoop=1;jettySize=auto;html=1;" parent="DPeJ0oSW1ntLBTdVf3Qx-3" source="DPeJ0oSW1ntLBTdVf3Qx-56" target="DPeJ0oSW1ntLBTdVf3Qx-16" edge="1">
          <mxGeometry relative="1" as="geometry" />
        </mxCell>
        <mxCell id="DPeJ0oSW1ntLBTdVf3Qx-56" value="" style="shape=mxgraph.bpmn.shape;html=1;verticalLabelPosition=bottom;labelBackgroundColor=#ffffff;verticalAlign=top;align=center;perimeter=rhombusPerimeter;background=gateway;outlineConnect=0;outline=none;symbol=exclusiveGw;" parent="DPeJ0oSW1ntLBTdVf3Qx-3" vertex="1">
          <mxGeometry x="1145" y="463" width="50" height="50" as="geometry" />
        </mxCell>
        <mxCell id="wv2Bi-2O3upc3u0hc1nC-1" value="Saved dataset" style="shape=datastore;whiteSpace=wrap;html=1;" parent="DPeJ0oSW1ntLBTdVf3Qx-3" vertex="1">
          <mxGeometry x="1030" y="403" width="60" height="60" as="geometry" />
        </mxCell>
        <mxCell id="wv2Bi-2O3upc3u0hc1nC-2" value="" style="endArrow=none;dashed=1;html=1;entryX=0.4;entryY=0.017;entryDx=0;entryDy=0;entryPerimeter=0;" parent="DPeJ0oSW1ntLBTdVf3Qx-3" source="DPeJ0oSW1ntLBTdVf3Qx-13" target="wv2Bi-2O3upc3u0hc1nC-1" edge="1">
          <mxGeometry width="50" height="50" relative="1" as="geometry">
            <mxPoint x="1010" y="180" as="sourcePoint" />
            <mxPoint x="1060" y="130" as="targetPoint" />
          </mxGeometry>
        </mxCell>
        <mxCell id="U9Vd30T9EG7b3IhSSjeB-4" value="" style="edgeStyle=orthogonalEdgeStyle;rounded=0;orthogonalLoop=1;jettySize=auto;html=1;" parent="DPeJ0oSW1ntLBTdVf3Qx-3" source="U9Vd30T9EG7b3IhSSjeB-1" target="U9Vd30T9EG7b3IhSSjeB-2" edge="1">
          <mxGeometry relative="1" as="geometry" />
        </mxCell>
        <mxCell id="U9Vd30T9EG7b3IhSSjeB-1" value="Generate API token (optional)" style="shape=ext;rounded=1;html=1;whiteSpace=wrap;" parent="DPeJ0oSW1ntLBTdVf3Qx-3" vertex="1">
          <mxGeometry x="929" y="138" width="120" height="80" as="geometry" />
        </mxCell>
        <mxCell id="U9Vd30T9EG7b3IhSSjeB-2" value="Perform API calls to EURHISFIRM API interface (optional)" style="html=1;whiteSpace=wrap;rounded=1;" parent="DPeJ0oSW1ntLBTdVf3Qx-3" vertex="1">
          <mxGeometry x="1102" y="138" width="120" height="80" as="geometry" />
        </mxCell>
        <mxCell id="U9Vd30T9EG7b3IhSSjeB-3" value="" style="html=1;shape=plus;outlineConnect=0;" parent="U9Vd30T9EG7b3IhSSjeB-2" vertex="1">
          <mxGeometry x="0.5" y="1" width="14" height="14" relative="1" as="geometry">
            <mxPoint x="-7" y="-14" as="offset" />
          </mxGeometry>
        </mxCell>
        <mxCell id="U9Vd30T9EG7b3IhSSjeB-7" value="" style="edgeStyle=orthogonalEdgeStyle;rounded=0;orthogonalLoop=1;jettySize=auto;html=1;entryX=0;entryY=0.5;entryDx=0;entryDy=0;" parent="DPeJ0oSW1ntLBTdVf3Qx-3" source="U9Vd30T9EG7b3IhSSjeB-5" target="DPeJ0oSW1ntLBTdVf3Qx-13" edge="1">
          <mxGeometry relative="1" as="geometry">
            <mxPoint x="958" y="348" as="targetPoint" />
          </mxGeometry>
        </mxCell>
        <mxCell id="U9Vd30T9EG7b3IhSSjeB-5" value="" style="shape=mxgraph.bpmn.shape;html=1;verticalLabelPosition=bottom;labelBackgroundColor=#ffffff;verticalAlign=top;align=center;perimeter=rhombusPerimeter;background=gateway;outlineConnect=0;outline=none;symbol=parallelGw;" parent="DPeJ0oSW1ntLBTdVf3Qx-3" vertex="1">
          <mxGeometry x="828" y="323" width="50" height="50" as="geometry" />
        </mxCell>
        <mxCell id="U9Vd30T9EG7b3IhSSjeB-8" value="" style="endArrow=block;endFill=1;endSize=6;html=1;entryX=0;entryY=0.5;entryDx=0;entryDy=0;exitX=0.5;exitY=0;exitDx=0;exitDy=0;" parent="DPeJ0oSW1ntLBTdVf3Qx-3" source="U9Vd30T9EG7b3IhSSjeB-5" target="U9Vd30T9EG7b3IhSSjeB-1" edge="1">
          <mxGeometry width="100" relative="1" as="geometry">
            <mxPoint x="250" y="903" as="sourcePoint" />
            <mxPoint x="350" y="903" as="targetPoint" />
          </mxGeometry>
        </mxCell>
        <mxCell id="U9Vd30T9EG7b3IhSSjeB-9" value="" style="shape=mxgraph.bpmn.shape;html=1;verticalLabelPosition=bottom;labelBackgroundColor=#ffffff;verticalAlign=top;align=center;perimeter=rhombusPerimeter;background=gateway;outlineConnect=0;outline=none;symbol=parallelGw;" parent="DPeJ0oSW1ntLBTdVf3Qx-3" vertex="1">
          <mxGeometry x="1242" y="323" width="50" height="50" as="geometry" />
        </mxCell>
        <mxCell id="U9Vd30T9EG7b3IhSSjeB-10" value="" style="endArrow=block;endFill=1;endSize=6;html=1;entryX=0.5;entryY=0;entryDx=0;entryDy=0;exitX=1;exitY=0.5;exitDx=0;exitDy=0;" parent="DPeJ0oSW1ntLBTdVf3Qx-3" source="U9Vd30T9EG7b3IhSSjeB-2" target="U9Vd30T9EG7b3IhSSjeB-9" edge="1">
          <mxGeometry width="100" relative="1" as="geometry">
            <mxPoint x="250" y="903" as="sourcePoint" />
            <mxPoint x="350" y="903" as="targetPoint" />
          </mxGeometry>
        </mxCell>
        <mxCell id="U9Vd30T9EG7b3IhSSjeB-11" value="" style="endArrow=block;endFill=1;endSize=6;html=1;entryX=0;entryY=0.5;entryDx=0;entryDy=0;exitX=1;exitY=0.5;exitDx=0;exitDy=0;" parent="DPeJ0oSW1ntLBTdVf3Qx-3" source="DPeJ0oSW1ntLBTdVf3Qx-13" target="U9Vd30T9EG7b3IhSSjeB-9" edge="1">
          <mxGeometry width="100" relative="1" as="geometry">
            <mxPoint x="250" y="903" as="sourcePoint" />
            <mxPoint x="350" y="903" as="targetPoint" />
          </mxGeometry>
        </mxCell>
        <mxCell id="xeI1vfigwAVQcHY5WcUM-3" value="" style="endArrow=none;dashed=1;html=1;exitX=1;exitY=0.25;exitDx=0;exitDy=0;" parent="DPeJ0oSW1ntLBTdVf3Qx-3" source="DPeJ0oSW1ntLBTdVf3Qx-13" target="DPeJ0oSW1ntLBTdVf3Qx-14" edge="1">
          <mxGeometry width="50" height="50" relative="1" as="geometry">
            <mxPoint x="1030" y="343" as="sourcePoint" />
            <mxPoint x="1080" y="293" as="targetPoint" />
          </mxGeometry>
        </mxCell>
        <mxCell id="xeI1vfigwAVQcHY5WcUM-5" value="" style="endArrow=none;dashed=1;html=1;exitX=0.5;exitY=0;exitDx=0;exitDy=0;entryX=0.25;entryY=1;entryDx=0;entryDy=0;" parent="DPeJ0oSW1ntLBTdVf3Qx-3" source="DPeJ0oSW1ntLBTdVf3Qx-14" target="U9Vd30T9EG7b3IhSSjeB-2" edge="1">
          <mxGeometry width="50" height="50" relative="1" as="geometry">
            <mxPoint x="1130" y="253" as="sourcePoint" />
            <mxPoint x="1180" y="203" as="targetPoint" />
          </mxGeometry>
        </mxCell>
        <mxCell id="DPeJ0oSW1ntLBTdVf3Qx-19" value="Centre of research" style="swimlane;html=1;horizontal=0;swimlaneLine=0;" parent="DPeJ0oSW1ntLBTdVf3Qx-2" vertex="1">
          <mxGeometry x="20" y="763" width="1530" height="137" as="geometry" />
        </mxCell>
        <mxCell id="DPeJ0oSW1ntLBTdVf3Qx-32" value="Identify and setup proposal: duration, user type, renumeration, ..." style="shape=ext;rounded=1;html=1;whiteSpace=wrap;" parent="DPeJ0oSW1ntLBTdVf3Qx-19" vertex="1">
          <mxGeometry x="311" y="28.5" width="120" height="80" as="geometry" />
        </mxCell>
        <mxCell id="DPeJ0oSW1ntLBTdVf3Qx-21" value="" style="endArrow=block;endFill=1;endSize=6;html=1;exitX=0.5;exitY=1;exitDx=0;exitDy=0;entryX=0.5;entryY=0;entryDx=0;entryDy=0;" parent="DPeJ0oSW1ntLBTdVf3Qx-2" source="DPeJ0oSW1ntLBTdVf3Qx-6" target="DPeJ0oSW1ntLBTdVf3Qx-32" edge="1">
          <mxGeometry width="100" relative="1" as="geometry">
            <mxPoint y="570" as="sourcePoint" />
            <mxPoint x="100" y="570" as="targetPoint" />
          </mxGeometry>
        </mxCell>
        <mxCell id="DPeJ0oSW1ntLBTdVf3Qx-22" value="Amend" style="startArrow=oval;startFill=0;startSize=7;endArrow=block;endFill=0;endSize=10;dashed=1;html=1;exitX=0;exitY=0.5;exitDx=0;exitDy=0;entryX=0.75;entryY=0;entryDx=0;entryDy=0;" parent="DPeJ0oSW1ntLBTdVf3Qx-2" source="DPeJ0oSW1ntLBTdVf3Qx-9" target="DPeJ0oSW1ntLBTdVf3Qx-32" edge="1">
          <mxGeometry x="0.1829" y="4" relative="1" as="geometry">
            <mxPoint y="570" as="sourcePoint" />
            <mxPoint x="100" y="570" as="targetPoint" />
            <mxPoint as="offset" />
          </mxGeometry>
        </mxCell>
        <mxCell id="DPeJ0oSW1ntLBTdVf3Qx-23" value="" style="shape=message;html=1;outlineConnect=0;" parent="DPeJ0oSW1ntLBTdVf3Qx-22" vertex="1">
          <mxGeometry width="20" height="14" relative="1" as="geometry">
            <mxPoint x="-10" y="-7" as="offset" />
          </mxGeometry>
        </mxCell>
        <mxCell id="DPeJ0oSW1ntLBTdVf3Qx-24" value="&lt;div&gt;Proposal and &lt;br&gt;&lt;/div&gt;&lt;div&gt;general&amp;nbsp; conditions&lt;/div&gt;" style="startArrow=oval;startFill=0;startSize=7;endArrow=block;endFill=0;endSize=10;dashed=1;html=1;exitX=1;exitY=0.5;exitDx=0;exitDy=0;entryX=0.4;entryY=1;entryDx=0;entryDy=0;entryPerimeter=0;" parent="DPeJ0oSW1ntLBTdVf3Qx-2" source="DPeJ0oSW1ntLBTdVf3Qx-32" target="DPeJ0oSW1ntLBTdVf3Qx-9" edge="1">
          <mxGeometry x="-0.1076" y="-2" relative="1" as="geometry">
            <mxPoint y="570" as="sourcePoint" />
            <mxPoint x="470" y="100" as="targetPoint" />
            <Array as="points">
              <mxPoint x="530" y="343" />
            </Array>
            <mxPoint as="offset" />
          </mxGeometry>
        </mxCell>
        <mxCell id="DPeJ0oSW1ntLBTdVf3Qx-25" value="" style="shape=message;html=1;outlineConnect=0;" parent="DPeJ0oSW1ntLBTdVf3Qx-24" vertex="1">
          <mxGeometry width="20" height="14" relative="1" as="geometry">
            <mxPoint x="-10" y="-7" as="offset" />
          </mxGeometry>
        </mxCell>
        <mxCell id="DPeJ0oSW1ntLBTdVf3Qx-26" value="" style="startArrow=oval;startFill=0;startSize=7;endArrow=block;endFill=0;endSize=10;dashed=1;html=1;exitX=1;exitY=0.5;exitDx=0;exitDy=0;entryX=0.5;entryY=0;entryDx=0;entryDy=0;" parent="DPeJ0oSW1ntLBTdVf3Qx-2" source="DPeJ0oSW1ntLBTdVf3Qx-9" target="DPeJ0oSW1ntLBTdVf3Qx-33" edge="1">
          <mxGeometry relative="1" as="geometry">
            <mxPoint y="570" as="sourcePoint" />
            <mxPoint x="480" y="270" as="targetPoint" />
          </mxGeometry>
        </mxCell>
        <mxCell id="DPeJ0oSW1ntLBTdVf3Qx-27" value="" style="shape=message;html=1;outlineConnect=0;" parent="DPeJ0oSW1ntLBTdVf3Qx-26" vertex="1">
          <mxGeometry width="20" height="14" relative="1" as="geometry">
            <mxPoint x="-10" y="-7" as="offset" />
          </mxGeometry>
        </mxCell>
        <mxCell id="DPeJ0oSW1ntLBTdVf3Qx-28" value="&lt;div&gt;Accept proposal&lt;/div&gt;&lt;div&gt;and general&lt;/div&gt;&lt;div&gt;conditions&lt;br&gt;&lt;/div&gt;" style="text;html=1;resizable=0;points=[];align=center;verticalAlign=middle;labelBackgroundColor=#ffffff;" parent="DPeJ0oSW1ntLBTdVf3Qx-26" vertex="1" connectable="0">
          <mxGeometry x="0.2811" y="-1" relative="1" as="geometry">
            <mxPoint as="offset" />
          </mxGeometry>
        </mxCell>
        <mxCell id="DPeJ0oSW1ntLBTdVf3Qx-29" value="&lt;div&gt;Welcome&lt;/div&gt;&lt;div&gt;message&lt;br&gt;&lt;/div&gt;" style="startArrow=oval;startFill=0;startSize=7;endArrow=block;endFill=0;endSize=10;dashed=1;html=1;exitX=1;exitY=0.5;exitDx=0;exitDy=0;entryX=0.45;entryY=1.05;entryDx=0;entryDy=0;entryPerimeter=0;" parent="DPeJ0oSW1ntLBTdVf3Qx-2" source="DPeJ0oSW1ntLBTdVf3Qx-33" target="DPeJ0oSW1ntLBTdVf3Qx-11" edge="1">
          <mxGeometry x="-0.2305" y="-7" relative="1" as="geometry">
            <mxPoint x="560" y="300" as="sourcePoint" />
            <mxPoint x="660" y="300" as="targetPoint" />
            <Array as="points" />
            <mxPoint as="offset" />
          </mxGeometry>
        </mxCell>
        <mxCell id="DPeJ0oSW1ntLBTdVf3Qx-30" value="" style="shape=message;html=1;outlineConnect=0;" parent="DPeJ0oSW1ntLBTdVf3Qx-29" vertex="1">
          <mxGeometry width="20" height="14" relative="1" as="geometry">
            <mxPoint x="-20.5" y="-19" as="offset" />
          </mxGeometry>
        </mxCell>
        <mxCell id="DPeJ0oSW1ntLBTdVf3Qx-31" value="&lt;div&gt;EURHISFIRM &lt;br&gt;&lt;/div&gt;&lt;div&gt;central support&lt;/div&gt;" style="swimlane;html=1;horizontal=0;swimlaneLine=0;startSize=35;" parent="DPeJ0oSW1ntLBTdVf3Qx-2" vertex="1">
          <mxGeometry x="20" y="543" width="1530" height="220" as="geometry" />
        </mxCell>
        <mxCell id="DPeJ0oSW1ntLBTdVf3Qx-33" value="Setup account + access rights" style="shape=ext;rounded=1;html=1;whiteSpace=wrap;" parent="DPeJ0oSW1ntLBTdVf3Qx-31" vertex="1">
          <mxGeometry x="540" y="30" width="120" height="80" as="geometry" />
        </mxCell>
        <mxCell id="DPeJ0oSW1ntLBTdVf3Qx-34" value="" style="edgeStyle=orthogonalEdgeStyle;rounded=0;orthogonalLoop=1;jettySize=auto;html=1;exitX=1;exitY=0.5;exitDx=0;exitDy=0;entryX=0;entryY=0.5;entryDx=0;entryDy=0;" parent="DPeJ0oSW1ntLBTdVf3Qx-31" source="DPeJ0oSW1ntLBTdVf3Qx-37" target="DPeJ0oSW1ntLBTdVf3Qx-39" edge="1">
          <mxGeometry relative="1" as="geometry">
            <mxPoint x="857" y="119" as="sourcePoint" />
            <mxPoint x="970" y="112" as="targetPoint" />
          </mxGeometry>
        </mxCell>
        <mxCell id="DPeJ0oSW1ntLBTdVf3Qx-35" value="Users and rights" style="shape=datastore;whiteSpace=wrap;html=1;" parent="DPeJ0oSW1ntLBTdVf3Qx-31" vertex="1">
          <mxGeometry x="570" y="140" width="60" height="60" as="geometry" />
        </mxCell>
        <mxCell id="DPeJ0oSW1ntLBTdVf3Qx-36" value="" style="endArrow=none;dashed=1;html=1;entryX=0.5;entryY=0;entryDx=0;entryDy=0;exitX=0.5;exitY=1;exitDx=0;exitDy=0;" parent="DPeJ0oSW1ntLBTdVf3Qx-31" source="DPeJ0oSW1ntLBTdVf3Qx-33" target="DPeJ0oSW1ntLBTdVf3Qx-35" edge="1">
          <mxGeometry width="50" height="50" relative="1" as="geometry">
            <mxPoint x="490" y="129" as="sourcePoint" />
            <mxPoint x="540" y="79" as="targetPoint" />
          </mxGeometry>
        </mxCell>
        <mxCell id="DPeJ0oSW1ntLBTdVf3Qx-37" value="Periodically check account usage (for aministrative reasons)" style="html=1;whiteSpace=wrap;rounded=1;" parent="DPeJ0oSW1ntLBTdVf3Qx-31" vertex="1">
          <mxGeometry x="890" y="40" width="120" height="80" as="geometry" />
        </mxCell>
        <mxCell id="DPeJ0oSW1ntLBTdVf3Qx-38" value="" style="shape=mxgraph.bpmn.timer_start;perimeter=ellipsePerimeter;html=1;verticalLabelPosition=bottom;labelBackgroundColor=#ffffff;verticalAlign=top;outlineConnect=0;" parent="DPeJ0oSW1ntLBTdVf3Qx-37" vertex="1">
          <mxGeometry x="1" y="1" width="30" height="30" relative="1" as="geometry">
            <mxPoint x="-40" y="-15" as="offset" />
          </mxGeometry>
        </mxCell>
        <mxCell id="DPeJ0oSW1ntLBTdVf3Qx-39" value="Periodically check for inactive accounts" style="html=1;whiteSpace=wrap;rounded=1;" parent="DPeJ0oSW1ntLBTdVf3Qx-31" vertex="1">
          <mxGeometry x="1110" y="40" width="120" height="80" as="geometry" />
        </mxCell>
        <mxCell id="DPeJ0oSW1ntLBTdVf3Qx-40" value="" style="shape=mxgraph.bpmn.timer_start;perimeter=ellipsePerimeter;html=1;verticalLabelPosition=bottom;labelBackgroundColor=#ffffff;verticalAlign=top;outlineConnect=0;" parent="DPeJ0oSW1ntLBTdVf3Qx-39" vertex="1">
          <mxGeometry x="1" y="1" width="30" height="30" relative="1" as="geometry">
            <mxPoint x="-40" y="-15" as="offset" />
          </mxGeometry>
        </mxCell>
        <mxCell id="DPeJ0oSW1ntLBTdVf3Qx-60" value="Close inactive accounts" style="html=1;whiteSpace=wrap;rounded=1;" parent="DPeJ0oSW1ntLBTdVf3Qx-31" vertex="1">
          <mxGeometry x="1320" y="40" width="120" height="80" as="geometry" />
        </mxCell>
        <mxCell id="DPeJ0oSW1ntLBTdVf3Qx-61" value="" style="shape=mxgraph.bpmn.timer_start;perimeter=ellipsePerimeter;html=1;verticalLabelPosition=bottom;labelBackgroundColor=#ffffff;verticalAlign=top;outlineConnect=0;" parent="DPeJ0oSW1ntLBTdVf3Qx-60" vertex="1">
          <mxGeometry x="1" y="1" width="30" height="30" relative="1" as="geometry">
            <mxPoint x="-40" y="-15" as="offset" />
          </mxGeometry>
        </mxCell>
        <mxCell id="DPeJ0oSW1ntLBTdVf3Qx-62" style="edgeStyle=orthogonalEdgeStyle;rounded=0;orthogonalLoop=1;jettySize=auto;html=1;exitX=1;exitY=0.5;exitDx=0;exitDy=0;" parent="DPeJ0oSW1ntLBTdVf3Qx-31" source="DPeJ0oSW1ntLBTdVf3Qx-39" target="DPeJ0oSW1ntLBTdVf3Qx-60" edge="1">
          <mxGeometry relative="1" as="geometry" />
        </mxCell>
        <mxCell id="xeI1vfigwAVQcHY5WcUM-6" value="Usage log" style="shape=datastore;whiteSpace=wrap;html=1;" parent="DPeJ0oSW1ntLBTdVf3Qx-31" vertex="1">
          <mxGeometry x="1030" y="140" width="60" height="60" as="geometry" />
        </mxCell>
        <mxCell id="xeI1vfigwAVQcHY5WcUM-7" value="" style="endArrow=none;dashed=1;html=1;exitX=0.15;exitY=0.05;exitDx=0;exitDy=0;exitPerimeter=0;" parent="DPeJ0oSW1ntLBTdVf3Qx-31" source="xeI1vfigwAVQcHY5WcUM-6" target="DPeJ0oSW1ntLBTdVf3Qx-37" edge="1">
          <mxGeometry width="50" height="50" relative="1" as="geometry">
            <mxPoint x="450" y="550" as="sourcePoint" />
            <mxPoint x="500" y="500" as="targetPoint" />
          </mxGeometry>
        </mxCell>
        <mxCell id="xeI1vfigwAVQcHY5WcUM-4" value="" style="endArrow=none;dashed=1;html=1;entryX=0.25;entryY=1;entryDx=0;entryDy=0;exitX=0.85;exitY=0.05;exitDx=0;exitDy=0;exitPerimeter=0;" parent="DPeJ0oSW1ntLBTdVf3Qx-31" source="xeI1vfigwAVQcHY5WcUM-6" target="DPeJ0oSW1ntLBTdVf3Qx-39" edge="1">
          <mxGeometry width="50" height="50" relative="1" as="geometry">
            <mxPoint x="450" y="480" as="sourcePoint" />
            <mxPoint x="500" y="430" as="targetPoint" />
          </mxGeometry>
        </mxCell>
        <mxCell id="DPeJ0oSW1ntLBTdVf3Qx-43" value="" style="endArrow=block;endFill=1;endSize=6;html=1;exitX=1;exitY=0.5;exitDx=0;exitDy=0;entryX=0.5;entryY=1;entryDx=0;entryDy=0;" parent="DPeJ0oSW1ntLBTdVf3Qx-2" source="DPeJ0oSW1ntLBTdVf3Qx-60" target="DPeJ0oSW1ntLBTdVf3Qx-16" edge="1">
          <mxGeometry width="100" relative="1" as="geometry">
            <mxPoint x="1230" y="313" as="sourcePoint" />
            <mxPoint x="1280" y="330" as="targetPoint" />
            <Array as="points">
              <mxPoint x="1499" y="623" />
            </Array>
          </mxGeometry>
        </mxCell>
        <mxCell id="DPeJ0oSW1ntLBTdVf3Qx-54" style="edgeStyle=orthogonalEdgeStyle;rounded=0;orthogonalLoop=1;jettySize=auto;html=1;" parent="DPeJ0oSW1ntLBTdVf3Qx-2" source="DPeJ0oSW1ntLBTdVf3Qx-52" target="DPeJ0oSW1ntLBTdVf3Qx-32" edge="1">
          <mxGeometry relative="1" as="geometry" />
        </mxCell>
        <mxCell id="DPeJ0oSW1ntLBTdVf3Qx-57" value="Alert e-mail" style="startArrow=oval;startFill=0;startSize=7;endArrow=block;endFill=0;endSize=10;dashed=1;html=1;entryX=0.5;entryY=1;entryDx=0;entryDy=0;exitX=0.5;exitY=0;exitDx=0;exitDy=0;" parent="DPeJ0oSW1ntLBTdVf3Qx-2" source="DPeJ0oSW1ntLBTdVf3Qx-39" target="DPeJ0oSW1ntLBTdVf3Qx-56" edge="1">
          <mxGeometry width="100" relative="1" as="geometry">
            <mxPoint x="900" y="320" as="sourcePoint" />
            <mxPoint x="1000" y="320" as="targetPoint" />
          </mxGeometry>
        </mxCell>
      </root>
    </mxGraphModel>
  </diagram>
</mxfile>
